<svg xmlns="http://www.w3.org/2000/svg" width="24" height="25" viewBox="0 0 24 25" fill="none">
  <path d="M12 17.8538C11.8012 17.851 11.6106 17.7725 11.4656 17.6337L3.9656 9.98C3.846 9.83129 3.78488 9.6425 3.79413 9.45035C3.80338 9.2582 3.88233 9.07643 4.01563 8.9404C4.14893 8.80437 4.32705 8.7238 4.51534 8.71436C4.70363 8.70492 4.88862 8.76729 5.03435 8.88934L12 16.0073L18.9656 8.88934C19.1113 8.76729 19.2963 8.70492 19.4846 8.71436C19.6729 8.7238 19.851 8.80437 19.9843 8.9404C20.1176 9.07643 20.1966 9.2582 20.2058 9.45035C20.2151 9.6425 20.1539 9.83129 20.0343 9.98L12.5343 17.6337C12.3894 17.7725 12.1988 17.851 12 17.8538Z" fill="#B0B5BF" style="fill:#B0B5BF;fill:color(display-p3 0.6902 0.7098 0.7490);fill-opacity:1;"/>
</svg>